<?xml version="1.0" encoding="utf-8" standalone="no"?>
<!DOCTYPE svg PUBLIC "-//W3C//DTD SVG 1.1//EN"
  "http://www.w3.org/Graphics/SVG/1.1/DTD/svg11.dtd">
<svg xmlns:xlink="http://www.w3.org/1999/xlink" width="756pt" height="345.6pt" viewBox="0 0 756 345.6" xmlns="http://www.w3.org/2000/svg" version="1.1">
 <metadata>
  <rdf:RDF xmlns:dc="http://purl.org/dc/elements/1.1/" xmlns:cc="http://creativecommons.org/ns#" xmlns:rdf="http://www.w3.org/1999/02/22-rdf-syntax-ns#">
   <cc:Work>
    <dc:type rdf:resource="http://purl.org/dc/dcmitype/StillImage"/>
    <dc:date>2026-05-28T00:42:50.659950</dc:date>
    <dc:format>image/svg+xml</dc:format>
    <dc:creator>
     <cc:Agent>
      <dc:title>Matplotlib v3.10.8, https://matplotlib.org/</dc:title>
     </cc:Agent>
    </dc:creator>
   </cc:Work>
  </rdf:RDF>
 </metadata>
 <defs>
  <style type="text/css">*{stroke-linejoin: round; stroke-linecap: butt}</style>
 </defs>
 <g id="figure_1">
  <g id="patch_1">
   <path d="M 0 345.6 
L 756 345.6 
L 756 0 
L 0 0 
z
" style="fill: #ffffff"/>
  </g>
  <g id="axes_1">
   <g id="patch_2">
    <path d="M 47.178365 312.24351 
L 752.99976 312.24351 
L 752.99976 18.118365 
L 47.178365 18.118365 
z
" style="fill: #ffffff"/>
   </g>
   <g id="matplotlib.axis_1">
    <g id="xtick_1">
     <g id="line2d_1">
      <path d="M 79.261156 312.24351 
L 79.261156 18.118365 
" clip-path="url(#p4c32b9b770)" style="fill: none; stroke: #b0b0b0; stroke-opacity: 0.3; stroke-width: 0.8; stroke-linecap: square"/>
     </g>
     <g id="line2d_2">
      <defs>
       <path id="mfc6cf1f620" d="M 0 0 
L 0 3.5 
" style="stroke: #000000; stroke-width: 0.8"/>
      </defs>
      <g>
       <use xlink:href="#mfc6cf1f620" x="79.261156" y="312.24351" style="stroke: #000000; stroke-width: 0.8"/>
      </g>
     </g>
     <g id="text_1">
      <!-- 0.0 -->
      <g transform="translate(71.309593 326.841947) scale(0.1 -0.1)">
       <defs>
        <path id="DejaVuSans-30" d="M 2034 4250 
Q 1547 4250 1301 3770 
Q 1056 3291 1056 2328 
Q 1056 1369 1301 889 
Q 1547 409 2034 409 
Q 2525 409 2770 889 
Q 3016 1369 3016 2328 
Q 3016 3291 2770 3770 
Q 2525 4250 2034 4250 
z
M 2034 4750 
Q 2819 4750 3233 4129 
Q 3647 3509 3647 2328 
Q 3647 1150 3233 529 
Q 2819 -91 2034 -91 
Q 1250 -91 836 529 
Q 422 1150 422 2328 
Q 422 3509 836 4129 
Q 1250 4750 2034 4750 
z
" transform="scale(0.015625)"/>
        <path id="DejaVuSans-2e" d="M 684 794 
L 1344 794 
L 1344 0 
L 684 0 
L 684 794 
z
" transform="scale(0.015625)"/>
       </defs>
       <use xlink:href="#DejaVuSans-30"/>
       <use xlink:href="#DejaVuSans-2e" transform="translate(63.623047 0)"/>
       <use xlink:href="#DejaVuSans-30" transform="translate(95.410156 0)"/>
      </g>
     </g>
    </g>
    <g id="xtick_2">
     <g id="line2d_3">
      <path d="M 159.803726 312.24351 
L 159.803726 18.118365 
" clip-path="url(#p4c32b9b770)" style="fill: none; stroke: #b0b0b0; stroke-opacity: 0.3; stroke-width: 0.8; stroke-linecap: square"/>
     </g>
     <g id="line2d_4">
      <g>
       <use xlink:href="#mfc6cf1f620" x="159.803726" y="312.24351" style="stroke: #000000; stroke-width: 0.8"/>
      </g>
     </g>
     <g id="text_2">
      <!-- 0.5 -->
      <g transform="translate(151.852164 326.841947) scale(0.1 -0.1)">
       <defs>
        <path id="DejaVuSans-35" d="M 691 4666 
L 3169 4666 
L 3169 4134 
L 1269 4134 
L 1269 2991 
Q 1406 3038 1543 3061 
Q 1681 3084 1819 3084 
Q 2600 3084 3056 2656 
Q 3513 2228 3513 1497 
Q 3513 744 3044 326 
Q 2575 -91 1722 -91 
Q 1428 -91 1123 -41 
Q 819 9 494 109 
L 494 744 
Q 775 591 1075 516 
Q 1375 441 1709 441 
Q 2250 441 2565 725 
Q 2881 1009 2881 1497 
Q 2881 1984 2565 2268 
Q 2250 2553 1709 2553 
Q 1456 2553 1204 2497 
Q 953 2441 691 2322 
L 691 4666 
z
" transform="scale(0.015625)"/>
       </defs>
       <use xlink:href="#DejaVuSans-30"/>
       <use xlink:href="#DejaVuSans-2e" transform="translate(63.623047 0)"/>
       <use xlink:href="#DejaVuSans-35" transform="translate(95.410156 0)"/>
      </g>
     </g>
    </g>
    <g id="xtick_3">
     <g id="line2d_5">
      <path d="M 240.346297 312.24351 
L 240.346297 18.118365 
" clip-path="url(#p4c32b9b770)" style="fill: none; stroke: #b0b0b0; stroke-opacity: 0.3; stroke-width: 0.8; stroke-linecap: square"/>
     </g>
     <g id="line2d_6">
      <g>
       <use xlink:href="#mfc6cf1f620" x="240.346297" y="312.24351" style="stroke: #000000; stroke-width: 0.8"/>
      </g>
     </g>
     <g id="text_3">
      <!-- 1.0 -->
      <g transform="translate(232.394735 326.841947) scale(0.1 -0.1)">
       <defs>
        <path id="DejaVuSans-31" d="M 794 531 
L 1825 531 
L 1825 4091 
L 703 3866 
L 703 4441 
L 1819 4666 
L 2450 4666 
L 2450 531 
L 3481 531 
L 3481 0 
L 794 0 
L 794 531 
z
" transform="scale(0.015625)"/>
       </defs>
       <use xlink:href="#DejaVuSans-31"/>
       <use xlink:href="#DejaVuSans-2e" transform="translate(63.623047 0)"/>
       <use xlink:href="#DejaVuSans-30" transform="translate(95.410156 0)"/>
      </g>
     </g>
    </g>
    <g id="xtick_4">
     <g id="line2d_7">
      <path d="M 320.888868 312.24351 
L 320.888868 18.118365 
" clip-path="url(#p4c32b9b770)" style="fill: none; stroke: #b0b0b0; stroke-opacity: 0.3; stroke-width: 0.8; stroke-linecap: square"/>
     </g>
     <g id="line2d_8">
      <g>
       <use xlink:href="#mfc6cf1f620" x="320.888868" y="312.24351" style="stroke: #000000; stroke-width: 0.8"/>
      </g>
     </g>
     <g id="text_4">
      <!-- 1.5 -->
      <g transform="translate(312.937305 326.841947) scale(0.1 -0.1)">
       <use xlink:href="#DejaVuSans-31"/>
       <use xlink:href="#DejaVuSans-2e" transform="translate(63.623047 0)"/>
       <use xlink:href="#DejaVuSans-35" transform="translate(95.410156 0)"/>
      </g>
     </g>
    </g>
    <g id="xtick_5">
     <g id="line2d_9">
      <path d="M 401.431439 312.24351 
L 401.431439 18.118365 
" clip-path="url(#p4c32b9b770)" style="fill: none; stroke: #b0b0b0; stroke-opacity: 0.3; stroke-width: 0.8; stroke-linecap: square"/>
     </g>
     <g id="line2d_10">
      <g>
       <use xlink:href="#mfc6cf1f620" x="401.431439" y="312.24351" style="stroke: #000000; stroke-width: 0.8"/>
      </g>
     </g>
     <g id="text_5">
      <!-- 2.0 -->
      <g transform="translate(393.479876 326.841947) scale(0.1 -0.1)">
       <defs>
        <path id="DejaVuSans-32" d="M 1228 531 
L 3431 531 
L 3431 0 
L 469 0 
L 469 531 
Q 828 903 1448 1529 
Q 2069 2156 2228 2338 
Q 2531 2678 2651 2914 
Q 2772 3150 2772 3378 
Q 2772 3750 2511 3984 
Q 2250 4219 1831 4219 
Q 1534 4219 1204 4116 
Q 875 4013 500 3803 
L 500 4441 
Q 881 4594 1212 4672 
Q 1544 4750 1819 4750 
Q 2544 4750 2975 4387 
Q 3406 4025 3406 3419 
Q 3406 3131 3298 2873 
Q 3191 2616 2906 2266 
Q 2828 2175 2409 1742 
Q 1991 1309 1228 531 
z
" transform="scale(0.015625)"/>
       </defs>
       <use xlink:href="#DejaVuSans-32"/>
       <use xlink:href="#DejaVuSans-2e" transform="translate(63.623047 0)"/>
       <use xlink:href="#DejaVuSans-30" transform="translate(95.410156 0)"/>
      </g>
     </g>
    </g>
    <g id="xtick_6">
     <g id="line2d_11">
      <path d="M 481.974009 312.24351 
L 481.974009 18.118365 
" clip-path="url(#p4c32b9b770)" style="fill: none; stroke: #b0b0b0; stroke-opacity: 0.3; stroke-width: 0.8; stroke-linecap: square"/>
     </g>
     <g id="line2d_12">
      <g>
       <use xlink:href="#mfc6cf1f620" x="481.974009" y="312.24351" style="stroke: #000000; stroke-width: 0.8"/>
      </g>
     </g>
     <g id="text_6">
      <!-- 2.5 -->
      <g transform="translate(474.022447 326.841947) scale(0.1 -0.1)">
       <use xlink:href="#DejaVuSans-32"/>
       <use xlink:href="#DejaVuSans-2e" transform="translate(63.623047 0)"/>
       <use xlink:href="#DejaVuSans-35" transform="translate(95.410156 0)"/>
      </g>
     </g>
    </g>
    <g id="xtick_7">
     <g id="line2d_13">
      <path d="M 562.51658 312.24351 
L 562.51658 18.118365 
" clip-path="url(#p4c32b9b770)" style="fill: none; stroke: #b0b0b0; stroke-opacity: 0.3; stroke-width: 0.8; stroke-linecap: square"/>
     </g>
     <g id="line2d_14">
      <g>
       <use xlink:href="#mfc6cf1f620" x="562.51658" y="312.24351" style="stroke: #000000; stroke-width: 0.8"/>
      </g>
     </g>
     <g id="text_7">
      <!-- 3.0 -->
      <g transform="translate(554.565018 326.841947) scale(0.1 -0.1)">
       <defs>
        <path id="DejaVuSans-33" d="M 2597 2516 
Q 3050 2419 3304 2112 
Q 3559 1806 3559 1356 
Q 3559 666 3084 287 
Q 2609 -91 1734 -91 
Q 1441 -91 1130 -33 
Q 819 25 488 141 
L 488 750 
Q 750 597 1062 519 
Q 1375 441 1716 441 
Q 2309 441 2620 675 
Q 2931 909 2931 1356 
Q 2931 1769 2642 2001 
Q 2353 2234 1838 2234 
L 1294 2234 
L 1294 2753 
L 1863 2753 
Q 2328 2753 2575 2939 
Q 2822 3125 2822 3475 
Q 2822 3834 2567 4026 
Q 2313 4219 1838 4219 
Q 1578 4219 1281 4162 
Q 984 4106 628 3988 
L 628 4550 
Q 988 4650 1302 4700 
Q 1616 4750 1894 4750 
Q 2613 4750 3031 4423 
Q 3450 4097 3450 3541 
Q 3450 3153 3228 2886 
Q 3006 2619 2597 2516 
z
" transform="scale(0.015625)"/>
       </defs>
       <use xlink:href="#DejaVuSans-33"/>
       <use xlink:href="#DejaVuSans-2e" transform="translate(63.623047 0)"/>
       <use xlink:href="#DejaVuSans-30" transform="translate(95.410156 0)"/>
      </g>
     </g>
    </g>
    <g id="xtick_8">
     <g id="line2d_15">
      <path d="M 643.059151 312.24351 
L 643.059151 18.118365 
" clip-path="url(#p4c32b9b770)" style="fill: none; stroke: #b0b0b0; stroke-opacity: 0.3; stroke-width: 0.8; stroke-linecap: square"/>
     </g>
     <g id="line2d_16">
      <g>
       <use xlink:href="#mfc6cf1f620" x="643.059151" y="312.24351" style="stroke: #000000; stroke-width: 0.8"/>
      </g>
     </g>
     <g id="text_8">
      <!-- 3.5 -->
      <g transform="translate(635.107588 326.841947) scale(0.1 -0.1)">
       <use xlink:href="#DejaVuSans-33"/>
       <use xlink:href="#DejaVuSans-2e" transform="translate(63.623047 0)"/>
       <use xlink:href="#DejaVuSans-35" transform="translate(95.410156 0)"/>
      </g>
     </g>
    </g>
    <g id="xtick_9">
     <g id="line2d_17">
      <path d="M 723.601722 312.24351 
L 723.601722 18.118365 
" clip-path="url(#p4c32b9b770)" style="fill: none; stroke: #b0b0b0; stroke-opacity: 0.3; stroke-width: 0.8; stroke-linecap: square"/>
     </g>
     <g id="line2d_18">
      <g>
       <use xlink:href="#mfc6cf1f620" x="723.601722" y="312.24351" style="stroke: #000000; stroke-width: 0.8"/>
      </g>
     </g>
     <g id="text_9">
      <!-- 4.0 -->
      <g transform="translate(715.650159 326.841947) scale(0.1 -0.1)">
       <defs>
        <path id="DejaVuSans-34" d="M 2419 4116 
L 825 1625 
L 2419 1625 
L 2419 4116 
z
M 2253 4666 
L 3047 4666 
L 3047 1625 
L 3713 1625 
L 3713 1100 
L 3047 1100 
L 3047 0 
L 2419 0 
L 2419 1100 
L 313 1100 
L 313 1709 
L 2253 4666 
z
" transform="scale(0.015625)"/>
       </defs>
       <use xlink:href="#DejaVuSans-34"/>
       <use xlink:href="#DejaVuSans-2e" transform="translate(63.623047 0)"/>
       <use xlink:href="#DejaVuSans-30" transform="translate(95.410156 0)"/>
      </g>
     </g>
    </g>
    <g id="text_10">
     <!-- time [s] -->
     <g transform="translate(380.697656 340.520072) scale(0.1 -0.1)">
      <defs>
       <path id="DejaVuSans-74" d="M 1172 4494 
L 1172 3500 
L 2356 3500 
L 2356 3053 
L 1172 3053 
L 1172 1153 
Q 1172 725 1289 603 
Q 1406 481 1766 481 
L 2356 481 
L 2356 0 
L 1766 0 
Q 1100 0 847 248 
Q 594 497 594 1153 
L 594 3053 
L 172 3053 
L 172 3500 
L 594 3500 
L 594 4494 
L 1172 4494 
z
" transform="scale(0.015625)"/>
       <path id="DejaVuSans-69" d="M 603 3500 
L 1178 3500 
L 1178 0 
L 603 0 
L 603 3500 
z
M 603 4863 
L 1178 4863 
L 1178 4134 
L 603 4134 
L 603 4863 
z
" transform="scale(0.015625)"/>
       <path id="DejaVuSans-6d" d="M 3328 2828 
Q 3544 3216 3844 3400 
Q 4144 3584 4550 3584 
Q 5097 3584 5394 3201 
Q 5691 2819 5691 2113 
L 5691 0 
L 5113 0 
L 5113 2094 
Q 5113 2597 4934 2840 
Q 4756 3084 4391 3084 
Q 3944 3084 3684 2787 
Q 3425 2491 3425 1978 
L 3425 0 
L 2847 0 
L 2847 2094 
Q 2847 2600 2669 2842 
Q 2491 3084 2119 3084 
Q 1678 3084 1418 2786 
Q 1159 2488 1159 1978 
L 1159 0 
L 581 0 
L 581 3500 
L 1159 3500 
L 1159 2956 
Q 1356 3278 1631 3431 
Q 1906 3584 2284 3584 
Q 2666 3584 2933 3390 
Q 3200 3197 3328 2828 
z
" transform="scale(0.015625)"/>
       <path id="DejaVuSans-65" d="M 3597 1894 
L 3597 1613 
L 953 1613 
Q 991 1019 1311 708 
Q 1631 397 2203 397 
Q 2534 397 2845 478 
Q 3156 559 3463 722 
L 3463 178 
Q 3153 47 2828 -22 
Q 2503 -91 2169 -91 
Q 1331 -91 842 396 
Q 353 884 353 1716 
Q 353 2575 817 3079 
Q 1281 3584 2069 3584 
Q 2775 3584 3186 3129 
Q 3597 2675 3597 1894 
z
M 3022 2063 
Q 3016 2534 2758 2815 
Q 2500 3097 2075 3097 
Q 1594 3097 1305 2825 
Q 1016 2553 972 2059 
L 3022 2063 
z
" transform="scale(0.015625)"/>
       <path id="DejaVuSans-20" transform="scale(0.015625)"/>
       <path id="DejaVuSans-5b" d="M 550 4863 
L 1875 4863 
L 1875 4416 
L 1125 4416 
L 1125 -397 
L 1875 -397 
L 1875 -844 
L 550 -844 
L 550 4863 
z
" transform="scale(0.015625)"/>
       <path id="DejaVuSans-73" d="M 2834 3397 
L 2834 2853 
Q 2591 2978 2328 3040 
Q 2066 3103 1784 3103 
Q 1356 3103 1142 2972 
Q 928 2841 928 2578 
Q 928 2378 1081 2264 
Q 1234 2150 1697 2047 
L 1894 2003 
Q 2506 1872 2764 1633 
Q 3022 1394 3022 966 
Q 3022 478 2636 193 
Q 2250 -91 1575 -91 
Q 1294 -91 989 -36 
Q 684 19 347 128 
L 347 722 
Q 666 556 975 473 
Q 1284 391 1588 391 
Q 1994 391 2212 530 
Q 2431 669 2431 922 
Q 2431 1156 2273 1281 
Q 2116 1406 1581 1522 
L 1381 1569 
Q 847 1681 609 1914 
Q 372 2147 372 2553 
Q 372 3047 722 3315 
Q 1072 3584 1716 3584 
Q 2034 3584 2315 3537 
Q 2597 3491 2834 3397 
z
" transform="scale(0.015625)"/>
       <path id="DejaVuSans-5d" d="M 1947 4863 
L 1947 -844 
L 622 -844 
L 622 -397 
L 1369 -397 
L 1369 4416 
L 622 4416 
L 622 4863 
L 1947 4863 
z
" transform="scale(0.015625)"/>
      </defs>
      <use xlink:href="#DejaVuSans-74"/>
      <use xlink:href="#DejaVuSans-69" transform="translate(39.208984 0)"/>
      <use xlink:href="#DejaVuSans-6d" transform="translate(66.992188 0)"/>
      <use xlink:href="#DejaVuSans-65" transform="translate(164.404297 0)"/>
      <use xlink:href="#DejaVuSans-20" transform="translate(225.927734 0)"/>
      <use xlink:href="#DejaVuSans-5b" transform="translate(257.714844 0)"/>
      <use xlink:href="#DejaVuSans-73" transform="translate(296.728516 0)"/>
      <use xlink:href="#DejaVuSans-5d" transform="translate(348.828125 0)"/>
     </g>
    </g>
   </g>
   <g id="matplotlib.axis_2">
    <g id="ytick_1">
     <g id="line2d_19">
      <path d="M 47.178365 171.28466 
L 752.99976 171.28466 
" clip-path="url(#p4c32b9b770)" style="fill: none; stroke: #b0b0b0; stroke-opacity: 0.3; stroke-width: 0.8; stroke-linecap: square"/>
     </g>
     <g id="line2d_20">
      <defs>
       <path id="m1e7cdbe221" d="M 0 0 
L -3.5 0 
" style="stroke: #000000; stroke-width: 0.8"/>
      </defs>
      <g>
       <use xlink:href="#m1e7cdbe221" x="47.178365" y="171.28466" style="stroke: #000000; stroke-width: 0.8"/>
      </g>
     </g>
     <g id="text_11">
      <!-- $\mathdefault{10^{-4}}$ -->
      <g transform="translate(16.678365 175.083879) scale(0.1 -0.1)">
       <defs>
        <path id="DejaVuSans-2212" d="M 678 2272 
L 4684 2272 
L 4684 1741 
L 678 1741 
L 678 2272 
z
" transform="scale(0.015625)"/>
       </defs>
       <use xlink:href="#DejaVuSans-31" transform="translate(0 0.684375)"/>
       <use xlink:href="#DejaVuSans-30" transform="translate(63.623047 0.684375)"/>
       <use xlink:href="#DejaVuSans-2212" transform="translate(128.203125 38.965625) scale(0.7)"/>
       <use xlink:href="#DejaVuSans-34" transform="translate(186.855469 38.965625) scale(0.7)"/>
      </g>
     </g>
    </g>
    <g id="ytick_2">
     <g id="line2d_21">
      <path d="M 47.178365 284.927167 
L 752.99976 284.927167 
" clip-path="url(#p4c32b9b770)" style="fill: none; stroke: #b0b0b0; stroke-opacity: 0.3; stroke-width: 0.8; stroke-linecap: square"/>
     </g>
     <g id="line2d_22">
      <defs>
       <path id="me071d12b53" d="M 0 0 
L -2 0 
" style="stroke: #000000; stroke-width: 0.6"/>
      </defs>
      <g>
       <use xlink:href="#me071d12b53" x="47.178365" y="284.927167" style="stroke: #000000; stroke-width: 0.6"/>
      </g>
     </g>
    </g>
    <g id="ytick_3">
     <g id="line2d_23">
      <path d="M 47.178365 257.772972 
L 752.99976 257.772972 
" clip-path="url(#p4c32b9b770)" style="fill: none; stroke: #b0b0b0; stroke-opacity: 0.3; stroke-width: 0.8; stroke-linecap: square"/>
     </g>
     <g id="line2d_24">
      <g>
       <use xlink:href="#me071d12b53" x="47.178365" y="257.772972" style="stroke: #000000; stroke-width: 0.6"/>
      </g>
     </g>
    </g>
    <g id="ytick_4">
     <g id="line2d_25">
      <path d="M 47.178365 236.710543 
L 752.99976 236.710543 
" clip-path="url(#p4c32b9b770)" style="fill: none; stroke: #b0b0b0; stroke-opacity: 0.3; stroke-width: 0.8; stroke-linecap: square"/>
     </g>
     <g id="line2d_26">
      <g>
       <use xlink:href="#me071d12b53" x="47.178365" y="236.710543" style="stroke: #000000; stroke-width: 0.6"/>
      </g>
     </g>
    </g>
    <g id="ytick_5">
     <g id="line2d_27">
      <path d="M 47.178365 219.501285 
L 752.99976 219.501285 
" clip-path="url(#p4c32b9b770)" style="fill: none; stroke: #b0b0b0; stroke-opacity: 0.3; stroke-width: 0.8; stroke-linecap: square"/>
     </g>
     <g id="line2d_28">
      <g>
       <use xlink:href="#me071d12b53" x="47.178365" y="219.501285" style="stroke: #000000; stroke-width: 0.6"/>
      </g>
     </g>
    </g>
    <g id="ytick_6">
     <g id="line2d_29">
      <path d="M 47.178365 204.951064 
L 752.99976 204.951064 
" clip-path="url(#p4c32b9b770)" style="fill: none; stroke: #b0b0b0; stroke-opacity: 0.3; stroke-width: 0.8; stroke-linecap: square"/>
     </g>
     <g id="line2d_30">
      <g>
       <use xlink:href="#me071d12b53" x="47.178365" y="204.951064" style="stroke: #000000; stroke-width: 0.6"/>
      </g>
     </g>
    </g>
    <g id="ytick_7">
     <g id="line2d_31">
      <path d="M 47.178365 192.34709 
L 752.99976 192.34709 
" clip-path="url(#p4c32b9b770)" style="fill: none; stroke: #b0b0b0; stroke-opacity: 0.3; stroke-width: 0.8; stroke-linecap: square"/>
     </g>
     <g id="line2d_32">
      <g>
       <use xlink:href="#me071d12b53" x="47.178365" y="192.34709" style="stroke: #000000; stroke-width: 0.6"/>
      </g>
     </g>
    </g>
    <g id="ytick_8">
     <g id="line2d_33">
      <path d="M 47.178365 181.229597 
L 752.99976 181.229597 
" clip-path="url(#p4c32b9b770)" style="fill: none; stroke: #b0b0b0; stroke-opacity: 0.3; stroke-width: 0.8; stroke-linecap: square"/>
     </g>
     <g id="line2d_34">
      <g>
       <use xlink:href="#me071d12b53" x="47.178365" y="181.229597" style="stroke: #000000; stroke-width: 0.6"/>
      </g>
     </g>
    </g>
    <g id="ytick_9">
     <g id="line2d_35">
      <path d="M 47.178365 105.858778 
L 752.99976 105.858778 
" clip-path="url(#p4c32b9b770)" style="fill: none; stroke: #b0b0b0; stroke-opacity: 0.3; stroke-width: 0.8; stroke-linecap: square"/>
     </g>
     <g id="line2d_36">
      <g>
       <use xlink:href="#me071d12b53" x="47.178365" y="105.858778" style="stroke: #000000; stroke-width: 0.6"/>
      </g>
     </g>
    </g>
    <g id="ytick_10">
     <g id="line2d_37">
      <path d="M 47.178365 67.58709 
L 752.99976 67.58709 
" clip-path="url(#p4c32b9b770)" style="fill: none; stroke: #b0b0b0; stroke-opacity: 0.3; stroke-width: 0.8; stroke-linecap: square"/>
     </g>
     <g id="line2d_38">
      <g>
       <use xlink:href="#me071d12b53" x="47.178365" y="67.58709" style="stroke: #000000; stroke-width: 0.6"/>
      </g>
     </g>
    </g>
    <g id="ytick_11">
     <g id="line2d_39">
      <path d="M 47.178365 40.432895 
L 752.99976 40.432895 
" clip-path="url(#p4c32b9b770)" style="fill: none; stroke: #b0b0b0; stroke-opacity: 0.3; stroke-width: 0.8; stroke-linecap: square"/>
     </g>
     <g id="line2d_40">
      <g>
       <use xlink:href="#me071d12b53" x="47.178365" y="40.432895" style="stroke: #000000; stroke-width: 0.6"/>
      </g>
     </g>
    </g>
    <g id="ytick_12">
     <g id="line2d_41">
      <path d="M 47.178365 19.370465 
L 752.99976 19.370465 
" clip-path="url(#p4c32b9b770)" style="fill: none; stroke: #b0b0b0; stroke-opacity: 0.3; stroke-width: 0.8; stroke-linecap: square"/>
     </g>
     <g id="line2d_42">
      <g>
       <use xlink:href="#me071d12b53" x="47.178365" y="19.370465" style="stroke: #000000; stroke-width: 0.6"/>
      </g>
     </g>
    </g>
    <g id="text_12">
     <!-- position error [m] -->
     <g transform="translate(10.598678 209.037969) rotate(-90) scale(0.1 -0.1)">
      <defs>
       <path id="DejaVuSans-70" d="M 1159 525 
L 1159 -1331 
L 581 -1331 
L 581 3500 
L 1159 3500 
L 1159 2969 
Q 1341 3281 1617 3432 
Q 1894 3584 2278 3584 
Q 2916 3584 3314 3078 
Q 3713 2572 3713 1747 
Q 3713 922 3314 415 
Q 2916 -91 2278 -91 
Q 1894 -91 1617 61 
Q 1341 213 1159 525 
z
M 3116 1747 
Q 3116 2381 2855 2742 
Q 2594 3103 2138 3103 
Q 1681 3103 1420 2742 
Q 1159 2381 1159 1747 
Q 1159 1113 1420 752 
Q 1681 391 2138 391 
Q 2594 391 2855 752 
Q 3116 1113 3116 1747 
z
" transform="scale(0.015625)"/>
       <path id="DejaVuSans-6f" d="M 1959 3097 
Q 1497 3097 1228 2736 
Q 959 2375 959 1747 
Q 959 1119 1226 758 
Q 1494 397 1959 397 
Q 2419 397 2687 759 
Q 2956 1122 2956 1747 
Q 2956 2369 2687 2733 
Q 2419 3097 1959 3097 
z
M 1959 3584 
Q 2709 3584 3137 3096 
Q 3566 2609 3566 1747 
Q 3566 888 3137 398 
Q 2709 -91 1959 -91 
Q 1206 -91 779 398 
Q 353 888 353 1747 
Q 353 2609 779 3096 
Q 1206 3584 1959 3584 
z
" transform="scale(0.015625)"/>
       <path id="DejaVuSans-6e" d="M 3513 2113 
L 3513 0 
L 2938 0 
L 2938 2094 
Q 2938 2591 2744 2837 
Q 2550 3084 2163 3084 
Q 1697 3084 1428 2787 
Q 1159 2491 1159 1978 
L 1159 0 
L 581 0 
L 581 3500 
L 1159 3500 
L 1159 2956 
Q 1366 3272 1645 3428 
Q 1925 3584 2291 3584 
Q 2894 3584 3203 3211 
Q 3513 2838 3513 2113 
z
" transform="scale(0.015625)"/>
       <path id="DejaVuSans-72" d="M 2631 2963 
Q 2534 3019 2420 3045 
Q 2306 3072 2169 3072 
Q 1681 3072 1420 2755 
Q 1159 2438 1159 1844 
L 1159 0 
L 581 0 
L 581 3500 
L 1159 3500 
L 1159 2956 
Q 1341 3275 1631 3429 
Q 1922 3584 2338 3584 
Q 2397 3584 2469 3576 
Q 2541 3569 2628 3553 
L 2631 2963 
z
" transform="scale(0.015625)"/>
      </defs>
      <use xlink:href="#DejaVuSans-70"/>
      <use xlink:href="#DejaVuSans-6f" transform="translate(63.476562 0)"/>
      <use xlink:href="#DejaVuSans-73" transform="translate(124.658203 0)"/>
      <use xlink:href="#DejaVuSans-69" transform="translate(176.757812 0)"/>
      <use xlink:href="#DejaVuSans-74" transform="translate(204.541016 0)"/>
      <use xlink:href="#DejaVuSans-69" transform="translate(243.75 0)"/>
      <use xlink:href="#DejaVuSans-6f" transform="translate(271.533203 0)"/>
      <use xlink:href="#DejaVuSans-6e" transform="translate(332.714844 0)"/>
      <use xlink:href="#DejaVuSans-20" transform="translate(396.09375 0)"/>
      <use xlink:href="#DejaVuSans-65" transform="translate(427.880859 0)"/>
      <use xlink:href="#DejaVuSans-72" transform="translate(489.404297 0)"/>
      <use xlink:href="#DejaVuSans-72" transform="translate(528.767578 0)"/>
      <use xlink:href="#DejaVuSans-6f" transform="translate(567.630859 0)"/>
      <use xlink:href="#DejaVuSans-72" transform="translate(628.8125 0)"/>
      <use xlink:href="#DejaVuSans-20" transform="translate(669.925781 0)"/>
      <use xlink:href="#DejaVuSans-5b" transform="translate(701.712891 0)"/>
      <use xlink:href="#DejaVuSans-6d" transform="translate(740.726562 0)"/>
      <use xlink:href="#DejaVuSans-5d" transform="translate(838.138672 0)"/>
     </g>
    </g>
   </g>
   <g id="line2d_43">
    <path d="M 81.944309 346.6 
L 81.945908 217.727567 
L 84.63066 185.936498 
L 87.315413 184.584019 
L 90.000165 179.603024 
L 92.684917 158.624071 
L 95.36967 128.509522 
L 98.054422 110.887649 
L 100.739175 86.291859 
L 103.423927 74.473348 
L 106.108679 70.173438 
L 108.793432 62.524252 
L 111.478184 64.258803 
L 114.162936 69.176308 
L 116.847689 70.390865 
L 119.532441 61.518732 
L 122.217193 51.967526 
L 124.901946 57.239635 
L 127.586698 52.65163 
L 130.27145 52.628448 
L 132.956203 49.175326 
L 135.640955 52.438844 
L 138.325708 50.885429 
L 141.01046 47.361328 
L 143.695212 40.006045 
L 146.379965 43.745271 
L 149.064717 47.058517 
L 151.749469 39.727482 
L 154.434222 39.423963 
L 157.118974 42.063291 
L 159.803726 44.320737 
L 162.488479 43.567179 
L 165.173231 43.774197 
L 167.857984 42.435453 
L 170.542736 44.435512 
L 173.227488 42.756099 
L 175.912241 43.008844 
L 178.596993 45.003457 
L 181.281745 53.021145 
L 183.966498 53.359076 
L 186.65125 51.753 
L 189.336002 45.400817 
L 192.020755 42.45542 
L 194.705507 41.263168 
L 197.390259 42.904905 
L 200.075012 44.310833 
L 202.759764 43.391747 
L 205.444517 37.313118 
L 208.129269 40.779868 
L 210.814021 40.900118 
L 213.498774 43.474029 
L 216.183526 38.751842 
L 218.868278 44.168433 
L 221.553031 54.444172 
L 224.237783 54.500921 
L 226.922535 40.382385 
L 229.607288 43.641385 
L 232.29204 45.17293 
L 234.976792 41.375461 
L 237.661545 38.564637 
L 240.346297 45.089624 
L 243.03105 40.890656 
L 245.715802 31.48769 
L 248.400554 37.778752 
L 251.085307 32.792728 
L 256.454811 36.368539 
L 259.139564 36.174258 
L 261.824316 37.530882 
L 264.509068 43.663229 
L 267.193821 46.522381 
L 269.878573 48.016561 
L 272.563325 44.113719 
L 275.248078 49.176698 
L 277.93283 43.632561 
L 280.617583 47.785196 
L 283.302335 42.632092 
L 285.987087 48.828208 
L 288.67184 43.26352 
L 291.356592 46.764459 
L 294.041344 42.149471 
L 296.726097 47.906806 
L 299.410849 48.835632 
L 302.095601 47.036934 
L 304.780354 44.07937 
L 307.465106 42.502673 
L 310.149858 45.010443 
L 312.834611 42.844126 
L 315.519363 41.887498 
L 318.204116 49.020294 
L 320.888868 45.992325 
L 323.57362 41.193106 
L 326.258373 42.335177 
L 328.943125 42.126639 
L 331.627877 46.504369 
L 334.31263 41.300575 
L 336.997382 43.434524 
L 339.682134 41.310445 
L 342.366887 43.911393 
L 345.051639 45.932153 
L 347.736392 51.478059 
L 350.421144 54.492136 
L 353.105896 51.993706 
L 355.790649 48.955711 
L 358.475401 53.457952 
L 361.160153 52.243767 
L 363.844906 48.223311 
L 366.529658 34.635862 
L 369.21441 38.432981 
L 371.899163 40.684255 
L 374.583915 38.259513 
L 377.268667 37.567411 
L 379.95342 41.570785 
L 382.638172 38.224781 
L 385.322925 39.209548 
L 388.007677 39.771603 
L 390.692429 34.813901 
L 393.377182 38.529456 
L 396.061934 48.115432 
L 398.746686 46.059992 
L 401.431439 44.893211 
L 404.116191 47.03415 
L 406.800943 46.138738 
L 409.485696 50.404435 
L 412.170448 48.834379 
L 414.8552 50.160168 
L 417.539953 44.344837 
L 420.224705 43.916908 
L 422.909458 43.86664 
L 425.59421 43.664615 
L 428.278962 46.583671 
L 430.963715 45.971705 
L 433.648467 49.325762 
L 436.333219 48.656022 
L 439.017972 45.763879 
L 441.702724 48.324437 
L 444.387476 46.920352 
L 447.072229 44.013636 
L 449.756981 45.953958 
L 452.441733 54.889079 
L 455.126486 48.721952 
L 457.811238 48.724959 
L 460.495991 48.862316 
L 463.180743 48.375015 
L 465.865495 45.64766 
L 468.550248 43.152275 
L 471.235 48.908082 
L 473.919752 47.198103 
L 476.604505 46.145516 
L 479.289257 47.677489 
L 481.974009 46.049168 
L 484.658762 47.52531 
L 487.343514 45.96786 
L 490.028267 47.334311 
L 492.713019 48.569376 
L 495.397771 46.794605 
L 498.082524 46.519971 
L 500.767276 47.61948 
L 503.452028 50.1955 
L 506.136781 45.124963 
L 508.821533 48.451022 
L 511.506285 47.936627 
L 514.191038 47.912493 
L 516.87579 47.062879 
L 519.560542 45.632753 
L 522.245295 48.580486 
L 524.930047 46.347751 
L 527.6148 49.791039 
L 530.299552 47.338863 
L 532.984304 49.546597 
L 535.669057 52.820923 
L 538.353809 58.858127 
L 541.038561 56.4795 
L 543.723314 57.17072 
L 546.408066 59.728912 
L 549.092818 61.716831 
L 551.777571 60.474958 
L 554.462323 60.538273 
L 557.147075 59.540495 
L 559.831828 56.62465 
L 562.51658 60.716502 
L 565.201333 58.660825 
L 567.886085 63.609894 
L 570.570837 61.20252 
L 573.25559 58.522486 
L 575.940342 61.475516 
L 578.625094 61.460857 
L 581.309847 61.283463 
L 583.994599 62.03448 
L 586.679351 60.288327 
L 589.364104 61.758066 
L 592.048856 60.383548 
L 594.733608 63.307585 
L 597.418361 60.732424 
L 600.103113 60.072446 
L 602.787866 62.961546 
L 605.472618 60.73302 
L 608.15737 61.33205 
L 610.842123 59.030866 
L 613.526875 62.749379 
L 616.211627 62.293263 
L 618.89638 62.248713 
L 621.581132 62.369576 
L 624.265884 68.037998 
L 626.950637 61.424907 
L 629.635389 63.424432 
L 632.320141 58.363562 
L 635.004894 62.42645 
L 637.689646 59.50231 
L 640.374399 62.902545 
L 643.059151 61.767261 
L 645.743903 59.936593 
L 648.428656 62.061119 
L 651.113408 61.806967 
L 653.79816 61.818682 
L 656.482913 62.895103 
L 659.167665 62.167155 
L 661.852417 63.915808 
L 664.53717 61.844519 
L 667.221922 63.283112 
L 669.906675 60.822264 
L 672.591427 61.804711 
L 675.276179 61.174403 
L 677.960932 53.936013 
L 680.645684 51.233203 
L 683.330436 49.518282 
L 686.015189 58.307332 
L 688.699941 59.930632 
L 691.384693 62.856234 
L 694.069446 59.630654 
L 696.754198 67.709309 
L 699.43895 65.976346 
L 702.123703 66.326057 
L 704.808455 57.264823 
L 707.493208 63.814293 
L 710.17796 59.456294 
L 712.862712 62.296709 
L 715.547465 62.325648 
L 718.232217 63.607226 
L 720.916969 62.941128 
L 720.916969 62.941128 
" clip-path="url(#p4c32b9b770)" style="fill: none; stroke: #1f77b4; stroke-width: 1.5; stroke-linecap: square"/>
   </g>
   <g id="line2d_44">
    <path d="M 81.945114 346.6 
L 81.945908 282.627632 
L 84.63066 233.225522 
L 87.315413 238.674365 
L 90.000165 229.495453 
L 92.684917 204.233254 
L 95.36967 171.465815 
L 98.054422 153.035148 
L 100.739175 125.583869 
L 103.423927 113.013004 
L 106.108679 109.599239 
L 108.793432 101.774728 
L 111.478184 104.355738 
L 114.162936 110.969805 
L 116.847689 112.950548 
L 119.532441 102.616038 
L 122.217193 91.676267 
L 124.901946 97.997461 
L 127.586698 93.5587 
L 130.27145 93.846549 
L 132.956203 90.612612 
L 135.640955 94.438979 
L 138.325708 92.367945 
L 141.01046 88.630866 
L 143.695212 80.611235 
L 146.379965 84.705755 
L 149.064717 89.527392 
L 151.749469 81.120939 
L 154.434222 80.682679 
L 157.118974 83.618417 
L 159.803726 86.368139 
L 162.488479 85.712826 
L 165.173231 86.076218 
L 167.857984 84.674703 
L 170.542736 86.993599 
L 173.227488 84.596665 
L 175.912241 85.043984 
L 178.596993 88.035663 
L 181.281745 96.549955 
L 183.966498 96.874707 
L 186.65125 95.440177 
L 189.336002 88.03485 
L 192.020755 84.863176 
L 194.705507 83.189789 
L 197.390259 85.314813 
L 200.075012 87.251906 
L 202.759764 86.260125 
L 205.444517 79.219178 
L 208.129269 82.818606 
L 210.814021 82.946561 
L 213.498774 86.252748 
L 216.183526 81.106303 
L 218.868278 87.284426 
L 221.553031 97.844099 
L 224.237783 97.837475 
L 226.922535 82.734475 
L 229.607288 86.13556 
L 232.29204 87.651071 
L 234.976792 83.791276 
L 237.661545 80.975024 
L 240.346297 88.019976 
L 243.03105 82.983225 
L 245.715802 72.559345 
L 248.400554 78.856251 
L 251.085307 73.586982 
L 256.454811 76.741075 
L 259.139564 76.415875 
L 261.824316 77.819182 
L 264.509068 84.369827 
L 267.193821 87.11817 
L 269.878573 88.709279 
L 272.563325 84.397364 
L 275.248078 89.552148 
L 277.93283 83.248997 
L 280.617583 86.944169 
L 283.302335 81.380918 
L 285.987087 87.529556 
L 288.67184 82.131854 
L 291.356592 85.775293 
L 294.041344 81.26888 
L 296.726097 87.111971 
L 299.410849 88.012916 
L 302.095601 86.490528 
L 304.780354 83.454334 
L 307.465106 81.927324 
L 310.149858 84.568171 
L 312.834611 82.60378 
L 315.519363 82.004018 
L 318.204116 89.14985 
L 320.888868 86.356665 
L 323.57362 81.527028 
L 326.258373 82.664909 
L 328.943125 82.737743 
L 331.627877 87.27843 
L 334.31263 82.182941 
L 336.997382 84.149229 
L 339.682134 81.951481 
L 342.366887 84.637376 
L 345.051639 86.756256 
L 347.736392 92.912834 
L 350.421144 96.316368 
L 353.105896 93.913199 
L 355.790649 90.73638 
L 358.475401 95.424441 
L 361.160153 94.497098 
L 363.844906 90.363428 
L 366.529658 76.895804 
L 369.21441 81.046448 
L 371.899163 83.971237 
L 374.583915 81.552123 
L 377.268667 80.771845 
L 379.95342 85.176703 
L 382.638172 81.742394 
L 385.322925 82.959018 
L 388.007677 83.50236 
L 390.692429 78.336205 
L 393.377182 82.314928 
L 396.061934 92.790247 
L 398.746686 90.781854 
L 401.431439 89.610803 
L 404.116191 91.922499 
L 406.800943 91.116158 
L 409.485696 95.875588 
L 412.170448 94.268694 
L 414.8552 95.740907 
L 417.539953 89.597332 
L 420.224705 89.150403 
L 422.909458 89.173886 
L 425.59421 88.901486 
L 428.278962 92.082237 
L 430.963715 91.524417 
L 433.648467 95.187362 
L 436.333219 94.486845 
L 439.017972 91.626344 
L 441.702724 94.33385 
L 444.387476 92.796161 
L 447.072229 89.739012 
L 449.756981 91.694482 
L 452.441733 101.860214 
L 455.126486 95.21201 
L 457.811238 95.140464 
L 460.495991 95.300104 
L 463.180743 94.572539 
L 468.550248 89.15569 
L 471.235 95.198587 
L 473.919752 93.688943 
L 476.604505 92.686065 
L 479.289257 94.488605 
L 481.974009 92.855581 
L 484.658762 94.493347 
L 487.343514 92.849286 
L 490.028267 94.450816 
L 492.713019 95.582633 
L 495.397771 93.580822 
L 498.082524 93.424676 
L 500.767276 94.485999 
L 503.452028 97.115941 
L 506.136781 91.685569 
L 508.821533 95.465845 
L 511.506285 94.923521 
L 514.191038 94.646174 
L 516.87579 93.753597 
L 519.560542 92.246604 
L 522.245295 95.28366 
L 524.930047 92.968062 
L 527.6148 96.925136 
L 530.299552 94.56842 
L 532.984304 97.033756 
L 535.669057 100.902962 
L 538.353809 107.608566 
L 541.038561 105.260296 
L 543.723314 106.085791 
L 546.408066 108.954128 
L 549.092818 111.364886 
L 551.777571 110.347509 
L 554.462323 110.153651 
L 557.147075 109.100839 
L 559.831828 106.115302 
L 562.51658 110.640215 
L 565.201333 108.508671 
L 567.886085 113.980999 
L 570.570837 111.298884 
L 573.25559 108.288251 
L 575.940342 111.249862 
L 578.625094 111.179857 
L 581.309847 110.785223 
L 583.994599 111.343142 
L 586.679351 109.943479 
L 589.364104 111.762286 
L 592.048856 109.746692 
L 594.733608 112.949519 
L 597.418361 110.423091 
L 600.103113 109.527977 
L 602.787866 112.387851 
L 605.472618 110.156814 
L 608.15737 110.740827 
L 610.842123 108.079691 
L 613.526875 111.99817 
L 616.211627 112.103301 
L 618.89638 111.345887 
L 621.581132 112.172005 
L 624.265884 118.38895 
L 626.950637 112.149891 
L 629.635389 114.182025 
L 632.320141 108.888925 
L 635.004894 113.304854 
L 637.689646 110.028981 
L 640.374399 112.948438 
L 643.059151 111.938961 
L 645.743903 110.1407 
L 648.428656 112.704617 
L 651.113408 112.575561 
L 653.79816 112.217938 
L 656.482913 113.518617 
L 659.167665 112.341011 
L 661.852417 113.78111 
L 664.53717 112.202776 
L 667.221922 113.862498 
L 669.906675 110.602228 
L 672.591427 109.734312 
L 675.276179 115.221843 
L 677.960932 108.282071 
L 680.645684 105.599844 
L 683.330436 105.302296 
L 686.015189 116.33849 
L 688.699941 118.297799 
L 691.384693 122.44466 
L 694.069446 119.442065 
L 696.754198 129.049491 
L 699.43895 127.922809 
L 702.123703 128.961262 
L 704.808455 119.284249 
L 707.493208 127.126891 
L 710.17796 122.142877 
L 712.862712 126.234927 
L 715.547465 126.68278 
L 718.232217 128.193637 
L 720.916969 126.748926 
L 720.916969 126.748926 
" clip-path="url(#p4c32b9b770)" style="fill: none; stroke: #ff7f0e; stroke-width: 1.5; stroke-linecap: square"/>
   </g>
   <g id="line2d_45">
    <path d="M 81.945316 346.6 
L 81.945908 298.874185 
L 84.63066 214.119951 
L 87.315413 216.844282 
L 90.000165 208.960368 
L 92.684917 183.843055 
L 95.36967 146.663636 
L 98.054422 126.742963 
L 100.739175 96.795014 
L 103.423927 83.45584 
L 106.108679 80.41192 
L 108.793432 72.088332 
L 111.478184 75.099389 
L 114.162936 82.903911 
L 116.847689 85.336604 
L 122.217193 61.137168 
L 124.901946 68.192865 
L 127.586698 63.429304 
L 130.27145 63.779151 
L 132.956203 60.283039 
L 135.640955 64.491654 
L 138.325708 61.867855 
L 141.01046 57.54103 
L 143.695212 48.654381 
L 146.379965 53.058923 
L 149.064717 58.70728 
L 151.749469 49.124236 
L 154.434222 48.465168 
L 159.803726 54.639831 
L 162.488479 53.900607 
L 165.173231 54.272541 
L 167.857984 52.655953 
L 170.542736 55.189208 
L 173.227488 52.225479 
L 175.912241 52.675247 
L 178.596993 56.245688 
L 181.281745 65.721231 
L 183.966498 66.026789 
L 186.65125 64.51569 
L 189.336002 55.991275 
L 192.020755 52.512365 
L 194.705507 50.480551 
L 197.390259 53.001183 
L 200.075012 55.282079 
L 202.759764 54.188317 
L 205.444517 46.179866 
L 208.129269 50.072808 
L 210.814021 50.181068 
L 213.498774 54.094784 
L 216.183526 48.350865 
L 218.868278 55.387908 
L 221.553031 65.361514 
L 224.237783 65.012688 
L 226.922535 48.987752 
L 229.607288 52.960362 
L 232.29204 54.552487 
L 234.976792 50.444837 
L 237.661545 47.632339 
L 240.346297 55.548699 
L 243.03105 49.728245 
L 245.715802 38.279401 
L 248.400554 45.146142 
L 251.085307 39.334465 
L 256.454811 42.686017 
L 259.139564 42.252811 
L 261.824316 43.735455 
L 264.509068 50.910405 
L 267.193821 53.767067 
L 269.878573 55.571199 
L 272.563325 50.70482 
L 275.248078 56.498877 
L 277.93283 49.493294 
L 280.617583 53.432175 
L 283.302335 47.182344 
L 285.987087 53.917679 
L 288.67184 47.926448 
L 291.356592 52.049334 
L 294.041344 47.038429 
L 296.726097 53.597814 
L 299.410849 54.705189 
L 302.095601 52.932062 
L 304.780354 49.664902 
L 307.465106 47.991268 
L 310.149858 51.03247 
L 312.834611 48.777169 
L 315.519363 48.002072 
L 318.204116 56.094529 
L 320.888868 52.941032 
L 323.57362 47.630797 
L 326.258373 49.046474 
L 328.943125 49.026808 
L 331.627877 54.144072 
L 334.31263 48.319412 
L 336.997382 50.701098 
L 339.682134 48.364497 
L 342.366887 51.489439 
L 345.051639 53.946204 
L 347.736392 60.723211 
L 350.421144 64.428882 
L 353.105896 61.657906 
L 355.790649 58.253707 
L 358.475401 63.726009 
L 361.160153 62.440877 
L 363.844906 57.806835 
L 366.529658 42.356707 
L 369.21441 46.939973 
L 371.899163 49.881333 
L 374.583915 47.082957 
L 377.268667 46.282566 
L 379.95342 51.19454 
L 382.638172 47.365474 
L 385.322925 48.697661 
L 388.007677 49.358971 
L 390.692429 43.643631 
L 393.377182 48.095363 
L 396.061934 59.845601 
L 398.746686 57.415264 
L 401.431439 56.006112 
L 404.116191 58.766417 
L 406.800943 57.792323 
L 409.485696 63.254385 
L 412.170448 61.348095 
L 414.8552 62.998234 
L 417.539953 56.028842 
L 420.224705 55.625079 
L 422.909458 55.647888 
L 425.59421 55.404824 
L 428.278962 59.071605 
L 430.963715 58.496203 
L 433.648467 62.696796 
L 436.333219 61.92191 
L 439.017972 58.524541 
L 441.702724 61.72196 
L 444.387476 60.09545 
L 447.072229 56.616212 
L 449.756981 58.989752 
L 452.441733 70.733738 
L 455.126486 62.691145 
L 460.495991 63.060271 
L 463.180743 62.429779 
L 468.550248 56.138197 
L 471.235 63.440836 
L 473.919752 61.447711 
L 476.604505 60.117191 
L 479.289257 62.202048 
L 481.974009 60.285861 
L 484.658762 62.292553 
L 487.343514 60.372383 
L 490.028267 62.189966 
L 492.713019 63.704107 
L 495.397771 61.545475 
L 498.082524 61.200475 
L 500.767276 62.592805 
L 503.452028 65.949542 
L 506.136781 59.433529 
L 508.821533 63.986261 
L 511.506285 63.153211 
L 514.191038 62.973457 
L 516.87579 62.020857 
L 519.560542 60.163793 
L 522.245295 64.047628 
L 524.930047 61.113584 
L 527.6148 65.856875 
L 530.299552 62.886861 
L 532.984304 65.859913 
L 535.669057 70.284557 
L 538.353809 78.401378 
L 541.038561 75.194309 
L 543.723314 75.997958 
L 546.408066 79.715955 
L 549.092818 82.465139 
L 551.777571 80.96635 
L 554.462323 81.020653 
L 557.147075 79.734054 
L 559.831828 75.815604 
L 562.51658 81.781764 
L 565.201333 78.750971 
L 567.886085 85.855812 
L 570.570837 82.215942 
L 573.25559 78.379477 
L 575.940342 82.643351 
L 578.625094 82.740517 
L 581.309847 82.454688 
L 583.994599 83.40406 
L 586.679351 81.063167 
L 589.364104 83.252899 
L 592.048856 81.144489 
L 594.733608 85.405092 
L 597.418361 81.733979 
L 600.103113 80.695788 
L 602.787866 84.885853 
L 605.472618 81.697945 
L 608.15737 82.574282 
L 610.842123 79.288519 
L 613.526875 84.684822 
L 616.211627 83.926512 
L 618.89638 83.705491 
L 621.581132 84.115972 
L 624.265884 92.431211 
L 626.950637 82.288954 
L 629.635389 84.580284 
L 632.320141 77.717101 
L 635.004894 83.520549 
L 637.689646 79.195606 
L 640.374399 83.543773 
L 643.059151 81.982278 
L 645.743903 79.71128 
L 648.428656 82.707504 
L 651.113408 82.313922 
L 653.79816 82.221513 
L 656.482913 83.60252 
L 659.167665 82.507902 
L 661.852417 84.795102 
L 664.53717 82.165275 
L 667.221922 84.126271 
L 669.906675 80.652292 
L 672.591427 81.541061 
L 675.276179 83.165939 
L 677.960932 73.519725 
L 680.645684 70.108785 
L 683.330436 68.541197 
L 686.015189 81.258655 
L 688.699941 84.271068 
L 691.384693 89.569611 
L 694.069446 85.472203 
L 696.754198 99.477242 
L 699.43895 97.249792 
L 702.123703 99.014845 
L 704.808455 85.168616 
L 707.493208 97.177123 
L 710.17796 90.425482 
L 712.862712 96.583433 
L 715.547465 98.035711 
L 718.232217 101.987679 
L 720.916969 103.164052 
L 720.916969 103.164052 
" clip-path="url(#p4c32b9b770)" style="fill: none; stroke: #2ca02c; stroke-width: 1.5; stroke-linecap: square"/>
   </g>
   <g id="line2d_46">
    <path d="M 81.945167 346.6 
L 81.945908 286.856479 
L 84.63066 227.31637 
L 87.315413 210.380583 
L 90.000165 202.097237 
L 92.684917 187.61448 
L 95.36967 155.775202 
L 98.054422 139.018505 
L 100.739175 113.253561 
L 103.423927 100.801972 
L 106.108679 98.046547 
L 108.793432 91.988177 
L 111.478184 95.523098 
L 114.162936 102.75958 
L 116.847689 105.920527 
L 119.532441 99.068808 
L 122.217193 89.907715 
L 124.901946 96.0177 
L 127.586698 94.561522 
L 130.27145 94.885533 
L 132.956203 94.166424 
L 135.640955 97.728948 
L 138.325708 97.303069 
L 141.01046 97.459154 
L 143.695212 91.519202 
L 146.379965 95.11095 
L 149.064717 102.501461 
L 151.749469 97.386965 
L 154.434222 98.279872 
L 159.803726 106.055898 
L 162.488479 107.503568 
L 165.173231 109.614939 
L 167.857984 110.602871 
L 170.542736 114.338712 
L 173.227488 113.81445 
L 175.912241 116.914496 
L 181.281745 127.721336 
L 183.966498 129.535129 
L 186.65125 130.416528 
L 189.336002 125.804705 
L 192.020755 123.788854 
L 194.705507 122.658518 
L 197.390259 124.860327 
L 200.075012 127.600084 
L 202.759764 127.194994 
L 205.444517 122.964361 
L 208.129269 125.151702 
L 210.814021 126.032258 
L 213.498774 128.702302 
L 216.183526 126.206799 
L 218.868278 129.581758 
L 221.553031 148.452439 
L 224.237783 151.497634 
L 226.922535 139.059958 
L 229.607288 137.083144 
L 232.29204 137.992516 
L 234.976792 136.489349 
L 237.661545 133.644482 
L 240.346297 135.64976 
L 243.03105 132.461035 
L 245.715802 125.586848 
L 248.400554 125.837882 
L 251.085307 124.128562 
L 253.770059 123.674115 
L 256.454811 122.332915 
L 259.139564 122.110312 
L 261.824316 123.160351 
L 264.509068 126.663361 
L 267.193821 128.074271 
L 269.878573 128.550328 
L 272.563325 126.806348 
L 275.248078 127.292497 
L 277.93283 122.471795 
L 280.617583 122.169616 
L 283.302335 119.943457 
L 285.987087 121.742049 
L 288.67184 119.998686 
L 291.356592 119.532995 
L 294.041344 117.143366 
L 296.726097 118.276161 
L 299.410849 117.918939 
L 302.095601 116.872772 
L 304.780354 115.170044 
L 307.465106 114.570587 
L 310.149858 113.049357 
L 312.834611 112.436577 
L 315.519363 111.419599 
L 318.204116 114.248033 
L 320.888868 111.915312 
L 323.57362 109.26579 
L 326.258373 108.021849 
L 328.943125 108.129556 
L 331.627877 109.154702 
L 334.31263 108.122796 
L 336.997382 108.45478 
L 339.682134 106.658079 
L 342.366887 106.150677 
L 345.051639 106.225715 
L 347.736392 109.226146 
L 350.421144 111.75363 
L 353.105896 110.648487 
L 355.790649 107.067226 
L 358.475401 108.150487 
L 361.160153 108.975023 
L 366.529658 104.396633 
L 369.21441 105.248443 
L 371.899163 107.902094 
L 374.583915 108.044471 
L 377.268667 107.506769 
L 379.95342 108.201931 
L 382.638172 106.77175 
L 385.322925 106.720656 
L 388.007677 106.832786 
L 390.692429 104.811199 
L 393.377182 105.448795 
L 396.061934 108.58507 
L 398.746686 109.275851 
L 401.431439 110.180399 
L 404.116191 109.030165 
L 406.800943 109.360764 
L 409.485696 109.829042 
L 412.170448 109.930995 
L 414.8552 110.77013 
L 417.539953 107.949604 
L 420.224705 106.64082 
L 422.909458 106.482194 
L 425.59421 106.124145 
L 428.278962 106.463239 
L 430.963715 105.29538 
L 433.648467 106.754408 
L 439.017972 105.845045 
L 441.702724 105.866129 
L 444.387476 104.217774 
L 447.072229 103.254715 
L 449.756981 103.109844 
L 452.441733 106.005066 
L 455.126486 105.936514 
L 457.811238 104.014567 
L 460.495991 103.758518 
L 463.180743 102.594434 
L 465.865495 102.135999 
L 468.550248 100.764237 
L 471.235 100.668986 
L 473.919752 101.230572 
L 476.604505 101.991931 
L 479.289257 102.177496 
L 481.974009 101.466747 
L 487.343514 100.283543 
L 490.028267 101.018022 
L 492.713019 100.638887 
L 495.397771 99.215699 
L 498.082524 100.180517 
L 500.767276 99.785931 
L 506.136781 98.724607 
L 508.821533 98.352557 
L 511.506285 99.844216 
L 514.191038 99.512558 
L 516.87579 98.681857 
L 519.560542 99.006982 
L 522.245295 98.099795 
L 524.930047 99.02617 
L 527.6148 98.687025 
L 530.299552 98.479694 
L 532.984304 98.553576 
L 535.669057 100.138653 
L 538.353809 102.148458 
L 541.038561 102.722231 
L 543.723314 104.11588 
L 546.408066 103.628372 
L 549.092818 105.385975 
L 551.777571 105.622057 
L 554.462323 104.126074 
L 557.147075 103.618124 
L 559.831828 104.076689 
L 562.51658 103.202284 
L 565.201333 104.440172 
L 567.886085 104.662708 
L 570.570837 105.242602 
L 573.25559 105.17516 
L 575.940342 103.612611 
L 578.625094 102.806366 
L 581.309847 102.118788 
L 583.994599 101.75325 
L 586.679351 103.210925 
L 589.364104 103.759532 
L 592.048856 102.169464 
L 594.733608 102.190819 
L 597.418361 103.253211 
L 600.103113 103.07519 
L 602.787866 101.674332 
L 605.472618 102.459748 
L 608.15737 102.116722 
L 613.526875 100.519265 
L 616.211627 103.738887 
L 618.89638 101.474902 
L 621.581132 103.581459 
L 624.265884 104.042783 
L 626.950637 110.823985 
L 629.635389 112.938045 
L 632.320141 113.329983 
L 635.004894 112.025542 
L 637.689646 113.170321 
L 640.374399 111.24771 
L 643.059151 112.538306 
L 645.743903 111.859777 
L 651.113408 114.194019 
L 653.79816 112.760208 
L 656.482913 114.355221 
L 659.167665 112.678562 
L 661.852417 111.551285 
L 664.53717 113.218428 
L 667.221922 114.165194 
L 669.906675 111.443706 
L 672.591427 104.545972 
L 675.276179 120.97326 
L 677.960932 124.451572 
L 680.645684 127.424288 
L 683.330436 134.226149 
L 686.015189 132.411716 
L 688.699941 128.96635 
L 691.384693 127.830062 
L 694.069446 130.075334 
L 696.754198 122.535432 
L 699.43895 125.935946 
L 702.123703 125.107682 
L 704.808455 131.912564 
L 707.493208 122.938811 
L 710.17796 123.433991 
L 712.862712 121.730413 
L 715.547465 119.008222 
L 718.232217 113.666716 
L 720.916969 103.794042 
L 720.916969 103.794042 
" clip-path="url(#p4c32b9b770)" style="fill: none; stroke: #d62728; stroke-width: 1.5; stroke-linecap: square"/>
   </g>
   <g id="patch_3">
    <path d="M 47.178365 312.24351 
L 47.178365 18.118365 
" style="fill: none; stroke: #000000; stroke-width: 0.8; stroke-linejoin: miter; stroke-linecap: square"/>
   </g>
   <g id="patch_4">
    <path d="M 752.99976 312.24351 
L 752.99976 18.118365 
" style="fill: none; stroke: #000000; stroke-width: 0.8; stroke-linejoin: miter; stroke-linecap: square"/>
   </g>
   <g id="patch_5">
    <path d="M 47.178365 312.24351 
L 752.99976 312.24351 
" style="fill: none; stroke: #000000; stroke-width: 0.8; stroke-linejoin: miter; stroke-linecap: square"/>
   </g>
   <g id="patch_6">
    <path d="M 47.178365 18.118365 
L 752.99976 18.118365 
" style="fill: none; stroke: #000000; stroke-width: 0.8; stroke-linejoin: miter; stroke-linecap: square"/>
   </g>
   <g id="text_13">
    <!-- RVBD Reduced Solve vs Maximal AVBD Pose Error -->
    <g transform="translate(250.657188 12.118365) scale(0.12 -0.12)">
     <defs>
      <path id="DejaVuSans-52" d="M 2841 2188 
Q 3044 2119 3236 1894 
Q 3428 1669 3622 1275 
L 4263 0 
L 3584 0 
L 2988 1197 
Q 2756 1666 2539 1819 
Q 2322 1972 1947 1972 
L 1259 1972 
L 1259 0 
L 628 0 
L 628 4666 
L 2053 4666 
Q 2853 4666 3247 4331 
Q 3641 3997 3641 3322 
Q 3641 2881 3436 2590 
Q 3231 2300 2841 2188 
z
M 1259 4147 
L 1259 2491 
L 2053 2491 
Q 2509 2491 2742 2702 
Q 2975 2913 2975 3322 
Q 2975 3731 2742 3939 
Q 2509 4147 2053 4147 
L 1259 4147 
z
" transform="scale(0.015625)"/>
      <path id="DejaVuSans-56" d="M 1831 0 
L 50 4666 
L 709 4666 
L 2188 738 
L 3669 4666 
L 4325 4666 
L 2547 0 
L 1831 0 
z
" transform="scale(0.015625)"/>
      <path id="DejaVuSans-42" d="M 1259 2228 
L 1259 519 
L 2272 519 
Q 2781 519 3026 730 
Q 3272 941 3272 1375 
Q 3272 1813 3026 2020 
Q 2781 2228 2272 2228 
L 1259 2228 
z
M 1259 4147 
L 1259 2741 
L 2194 2741 
Q 2656 2741 2882 2914 
Q 3109 3088 3109 3444 
Q 3109 3797 2882 3972 
Q 2656 4147 2194 4147 
L 1259 4147 
z
M 628 4666 
L 2241 4666 
Q 2963 4666 3353 4366 
Q 3744 4066 3744 3513 
Q 3744 3084 3544 2831 
Q 3344 2578 2956 2516 
Q 3422 2416 3680 2098 
Q 3938 1781 3938 1306 
Q 3938 681 3513 340 
Q 3088 0 2303 0 
L 628 0 
L 628 4666 
z
" transform="scale(0.015625)"/>
      <path id="DejaVuSans-44" d="M 1259 4147 
L 1259 519 
L 2022 519 
Q 2988 519 3436 956 
Q 3884 1394 3884 2338 
Q 3884 3275 3436 3711 
Q 2988 4147 2022 4147 
L 1259 4147 
z
M 628 4666 
L 1925 4666 
Q 3281 4666 3915 4102 
Q 4550 3538 4550 2338 
Q 4550 1131 3912 565 
Q 3275 0 1925 0 
L 628 0 
L 628 4666 
z
" transform="scale(0.015625)"/>
      <path id="DejaVuSans-64" d="M 2906 2969 
L 2906 4863 
L 3481 4863 
L 3481 0 
L 2906 0 
L 2906 525 
Q 2725 213 2448 61 
Q 2172 -91 1784 -91 
Q 1150 -91 751 415 
Q 353 922 353 1747 
Q 353 2572 751 3078 
Q 1150 3584 1784 3584 
Q 2172 3584 2448 3432 
Q 2725 3281 2906 2969 
z
M 947 1747 
Q 947 1113 1208 752 
Q 1469 391 1925 391 
Q 2381 391 2643 752 
Q 2906 1113 2906 1747 
Q 2906 2381 2643 2742 
Q 2381 3103 1925 3103 
Q 1469 3103 1208 2742 
Q 947 2381 947 1747 
z
" transform="scale(0.015625)"/>
      <path id="DejaVuSans-75" d="M 544 1381 
L 544 3500 
L 1119 3500 
L 1119 1403 
Q 1119 906 1312 657 
Q 1506 409 1894 409 
Q 2359 409 2629 706 
Q 2900 1003 2900 1516 
L 2900 3500 
L 3475 3500 
L 3475 0 
L 2900 0 
L 2900 538 
Q 2691 219 2414 64 
Q 2138 -91 1772 -91 
Q 1169 -91 856 284 
Q 544 659 544 1381 
z
M 1991 3584 
L 1991 3584 
z
" transform="scale(0.015625)"/>
      <path id="DejaVuSans-63" d="M 3122 3366 
L 3122 2828 
Q 2878 2963 2633 3030 
Q 2388 3097 2138 3097 
Q 1578 3097 1268 2742 
Q 959 2388 959 1747 
Q 959 1106 1268 751 
Q 1578 397 2138 397 
Q 2388 397 2633 464 
Q 2878 531 3122 666 
L 3122 134 
Q 2881 22 2623 -34 
Q 2366 -91 2075 -91 
Q 1284 -91 818 406 
Q 353 903 353 1747 
Q 353 2603 823 3093 
Q 1294 3584 2113 3584 
Q 2378 3584 2631 3529 
Q 2884 3475 3122 3366 
z
" transform="scale(0.015625)"/>
      <path id="DejaVuSans-53" d="M 3425 4513 
L 3425 3897 
Q 3066 4069 2747 4153 
Q 2428 4238 2131 4238 
Q 1616 4238 1336 4038 
Q 1056 3838 1056 3469 
Q 1056 3159 1242 3001 
Q 1428 2844 1947 2747 
L 2328 2669 
Q 3034 2534 3370 2195 
Q 3706 1856 3706 1288 
Q 3706 609 3251 259 
Q 2797 -91 1919 -91 
Q 1588 -91 1214 -16 
Q 841 59 441 206 
L 441 856 
Q 825 641 1194 531 
Q 1563 422 1919 422 
Q 2459 422 2753 634 
Q 3047 847 3047 1241 
Q 3047 1584 2836 1778 
Q 2625 1972 2144 2069 
L 1759 2144 
Q 1053 2284 737 2584 
Q 422 2884 422 3419 
Q 422 4038 858 4394 
Q 1294 4750 2059 4750 
Q 2388 4750 2728 4690 
Q 3069 4631 3425 4513 
z
" transform="scale(0.015625)"/>
      <path id="DejaVuSans-6c" d="M 603 4863 
L 1178 4863 
L 1178 0 
L 603 0 
L 603 4863 
z
" transform="scale(0.015625)"/>
      <path id="DejaVuSans-76" d="M 191 3500 
L 800 3500 
L 1894 563 
L 2988 3500 
L 3597 3500 
L 2284 0 
L 1503 0 
L 191 3500 
z
" transform="scale(0.015625)"/>
      <path id="DejaVuSans-4d" d="M 628 4666 
L 1569 4666 
L 2759 1491 
L 3956 4666 
L 4897 4666 
L 4897 0 
L 4281 0 
L 4281 4097 
L 3078 897 
L 2444 897 
L 1241 4097 
L 1241 0 
L 628 0 
L 628 4666 
z
" transform="scale(0.015625)"/>
      <path id="DejaVuSans-61" d="M 2194 1759 
Q 1497 1759 1228 1600 
Q 959 1441 959 1056 
Q 959 750 1161 570 
Q 1363 391 1709 391 
Q 2188 391 2477 730 
Q 2766 1069 2766 1631 
L 2766 1759 
L 2194 1759 
z
M 3341 1997 
L 3341 0 
L 2766 0 
L 2766 531 
Q 2569 213 2275 61 
Q 1981 -91 1556 -91 
Q 1019 -91 701 211 
Q 384 513 384 1019 
Q 384 1609 779 1909 
Q 1175 2209 1959 2209 
L 2766 2209 
L 2766 2266 
Q 2766 2663 2505 2880 
Q 2244 3097 1772 3097 
Q 1472 3097 1187 3025 
Q 903 2953 641 2809 
L 641 3341 
Q 956 3463 1253 3523 
Q 1550 3584 1831 3584 
Q 2591 3584 2966 3190 
Q 3341 2797 3341 1997 
z
" transform="scale(0.015625)"/>
      <path id="DejaVuSans-78" d="M 3513 3500 
L 2247 1797 
L 3578 0 
L 2900 0 
L 1881 1375 
L 863 0 
L 184 0 
L 1544 1831 
L 300 3500 
L 978 3500 
L 1906 2253 
L 2834 3500 
L 3513 3500 
z
" transform="scale(0.015625)"/>
      <path id="DejaVuSans-41" d="M 2188 4044 
L 1331 1722 
L 3047 1722 
L 2188 4044 
z
M 1831 4666 
L 2547 4666 
L 4325 0 
L 3669 0 
L 3244 1197 
L 1141 1197 
L 716 0 
L 50 0 
L 1831 4666 
z
" transform="scale(0.015625)"/>
      <path id="DejaVuSans-50" d="M 1259 4147 
L 1259 2394 
L 2053 2394 
Q 2494 2394 2734 2622 
Q 2975 2850 2975 3272 
Q 2975 3691 2734 3919 
Q 2494 4147 2053 4147 
L 1259 4147 
z
M 628 4666 
L 2053 4666 
Q 2838 4666 3239 4311 
Q 3641 3956 3641 3272 
Q 3641 2581 3239 2228 
Q 2838 1875 2053 1875 
L 1259 1875 
L 1259 0 
L 628 0 
L 628 4666 
z
" transform="scale(0.015625)"/>
      <path id="DejaVuSans-45" d="M 628 4666 
L 3578 4666 
L 3578 4134 
L 1259 4134 
L 1259 2753 
L 3481 2753 
L 3481 2222 
L 1259 2222 
L 1259 531 
L 3634 531 
L 3634 0 
L 628 0 
L 628 4666 
z
" transform="scale(0.015625)"/>
     </defs>
     <use xlink:href="#DejaVuSans-52"/>
     <use xlink:href="#DejaVuSans-56" transform="translate(63.982422 0)"/>
     <use xlink:href="#DejaVuSans-42" transform="translate(132.390625 0)"/>
     <use xlink:href="#DejaVuSans-44" transform="translate(200.994141 0)"/>
     <use xlink:href="#DejaVuSans-20" transform="translate(277.996094 0)"/>
     <use xlink:href="#DejaVuSans-52" transform="translate(309.783203 0)"/>
     <use xlink:href="#DejaVuSans-65" transform="translate(374.765625 0)"/>
     <use xlink:href="#DejaVuSans-64" transform="translate(436.289062 0)"/>
     <use xlink:href="#DejaVuSans-75" transform="translate(499.765625 0)"/>
     <use xlink:href="#DejaVuSans-63" transform="translate(563.144531 0)"/>
     <use xlink:href="#DejaVuSans-65" transform="translate(618.125 0)"/>
     <use xlink:href="#DejaVuSans-64" transform="translate(679.648438 0)"/>
     <use xlink:href="#DejaVuSans-20" transform="translate(743.125 0)"/>
     <use xlink:href="#DejaVuSans-53" transform="translate(774.912109 0)"/>
     <use xlink:href="#DejaVuSans-6f" transform="translate(838.388672 0)"/>
     <use xlink:href="#DejaVuSans-6c" transform="translate(899.570312 0)"/>
     <use xlink:href="#DejaVuSans-76" transform="translate(927.353516 0)"/>
     <use xlink:href="#DejaVuSans-65" transform="translate(986.533203 0)"/>
     <use xlink:href="#DejaVuSans-20" transform="translate(1048.056641 0)"/>
     <use xlink:href="#DejaVuSans-76" transform="translate(1079.84375 0)"/>
     <use xlink:href="#DejaVuSans-73" transform="translate(1139.023438 0)"/>
     <use xlink:href="#DejaVuSans-20" transform="translate(1191.123047 0)"/>
     <use xlink:href="#DejaVuSans-4d" transform="translate(1222.910156 0)"/>
     <use xlink:href="#DejaVuSans-61" transform="translate(1309.189453 0)"/>
     <use xlink:href="#DejaVuSans-78" transform="translate(1370.46875 0)"/>
     <use xlink:href="#DejaVuSans-69" transform="translate(1429.648438 0)"/>
     <use xlink:href="#DejaVuSans-6d" transform="translate(1457.431641 0)"/>
     <use xlink:href="#DejaVuSans-61" transform="translate(1554.84375 0)"/>
     <use xlink:href="#DejaVuSans-6c" transform="translate(1616.123047 0)"/>
     <use xlink:href="#DejaVuSans-20" transform="translate(1643.90625 0)"/>
     <use xlink:href="#DejaVuSans-41" transform="translate(1675.693359 0)"/>
     <use xlink:href="#DejaVuSans-56" transform="translate(1737.726562 0)"/>
     <use xlink:href="#DejaVuSans-42" transform="translate(1806.134766 0)"/>
     <use xlink:href="#DejaVuSans-44" transform="translate(1874.738281 0)"/>
     <use xlink:href="#DejaVuSans-20" transform="translate(1951.740234 0)"/>
     <use xlink:href="#DejaVuSans-50" transform="translate(1983.527344 0)"/>
     <use xlink:href="#DejaVuSans-6f" transform="translate(2040.205078 0)"/>
     <use xlink:href="#DejaVuSans-73" transform="translate(2101.386719 0)"/>
     <use xlink:href="#DejaVuSans-65" transform="translate(2153.486328 0)"/>
     <use xlink:href="#DejaVuSans-20" transform="translate(2215.009766 0)"/>
     <use xlink:href="#DejaVuSans-45" transform="translate(2246.796875 0)"/>
     <use xlink:href="#DejaVuSans-72" transform="translate(2309.980469 0)"/>
     <use xlink:href="#DejaVuSans-72" transform="translate(2349.34375 0)"/>
     <use xlink:href="#DejaVuSans-6f" transform="translate(2388.207031 0)"/>
     <use xlink:href="#DejaVuSans-72" transform="translate(2449.388672 0)"/>
    </g>
   </g>
   <g id="legend_1">
    <g id="patch_7">
     <path d="M 621.37476 307.24351 
L 745.99976 307.24351 
Q 747.99976 307.24351 747.99976 305.24351 
L 747.99976 247.53101 
Q 747.99976 245.53101 745.99976 245.53101 
L 621.37476 245.53101 
Q 619.37476 245.53101 619.37476 247.53101 
L 619.37476 305.24351 
Q 619.37476 307.24351 621.37476 307.24351 
z
" style="fill: #ffffff; opacity: 0.8; stroke: #cccccc; stroke-linejoin: miter"/>
    </g>
    <g id="line2d_47">
     <path d="M 623.37476 253.629447 
L 633.37476 253.629447 
L 643.37476 253.629447 
" style="fill: none; stroke: #1f77b4; stroke-width: 1.5; stroke-linecap: square"/>
    </g>
    <g id="text_14">
     <!-- max body position -->
     <g transform="translate(651.37476 257.129447) scale(0.1 -0.1)">
      <defs>
       <path id="DejaVuSans-62" d="M 3116 1747 
Q 3116 2381 2855 2742 
Q 2594 3103 2138 3103 
Q 1681 3103 1420 2742 
Q 1159 2381 1159 1747 
Q 1159 1113 1420 752 
Q 1681 391 2138 391 
Q 2594 391 2855 752 
Q 3116 1113 3116 1747 
z
M 1159 2969 
Q 1341 3281 1617 3432 
Q 1894 3584 2278 3584 
Q 2916 3584 3314 3078 
Q 3713 2572 3713 1747 
Q 3713 922 3314 415 
Q 2916 -91 2278 -91 
Q 1894 -91 1617 61 
Q 1341 213 1159 525 
L 1159 0 
L 581 0 
L 581 4863 
L 1159 4863 
L 1159 2969 
z
" transform="scale(0.015625)"/>
       <path id="DejaVuSans-79" d="M 2059 -325 
Q 1816 -950 1584 -1140 
Q 1353 -1331 966 -1331 
L 506 -1331 
L 506 -850 
L 844 -850 
Q 1081 -850 1212 -737 
Q 1344 -625 1503 -206 
L 1606 56 
L 191 3500 
L 800 3500 
L 1894 763 
L 2988 3500 
L 3597 3500 
L 2059 -325 
z
" transform="scale(0.015625)"/>
      </defs>
      <use xlink:href="#DejaVuSans-6d"/>
      <use xlink:href="#DejaVuSans-61" transform="translate(97.412109 0)"/>
      <use xlink:href="#DejaVuSans-78" transform="translate(158.691406 0)"/>
      <use xlink:href="#DejaVuSans-20" transform="translate(217.871094 0)"/>
      <use xlink:href="#DejaVuSans-62" transform="translate(249.658203 0)"/>
      <use xlink:href="#DejaVuSans-6f" transform="translate(313.134766 0)"/>
      <use xlink:href="#DejaVuSans-64" transform="translate(374.316406 0)"/>
      <use xlink:href="#DejaVuSans-79" transform="translate(437.792969 0)"/>
      <use xlink:href="#DejaVuSans-20" transform="translate(496.972656 0)"/>
      <use xlink:href="#DejaVuSans-70" transform="translate(528.759766 0)"/>
      <use xlink:href="#DejaVuSans-6f" transform="translate(592.236328 0)"/>
      <use xlink:href="#DejaVuSans-73" transform="translate(653.417969 0)"/>
      <use xlink:href="#DejaVuSans-69" transform="translate(705.517578 0)"/>
      <use xlink:href="#DejaVuSans-74" transform="translate(733.300781 0)"/>
      <use xlink:href="#DejaVuSans-69" transform="translate(772.509766 0)"/>
      <use xlink:href="#DejaVuSans-6f" transform="translate(800.292969 0)"/>
      <use xlink:href="#DejaVuSans-6e" transform="translate(861.474609 0)"/>
     </g>
    </g>
    <g id="line2d_48">
     <path d="M 623.37476 268.307572 
L 633.37476 268.307572 
L 643.37476 268.307572 
" style="fill: none; stroke: #ff7f0e; stroke-width: 1.5; stroke-linecap: square"/>
    </g>
    <g id="text_15">
     <!-- RMS body position -->
     <g transform="translate(651.37476 271.807572) scale(0.1 -0.1)">
      <use xlink:href="#DejaVuSans-52"/>
      <use xlink:href="#DejaVuSans-4d" transform="translate(69.482422 0)"/>
      <use xlink:href="#DejaVuSans-53" transform="translate(155.761719 0)"/>
      <use xlink:href="#DejaVuSans-20" transform="translate(219.238281 0)"/>
      <use xlink:href="#DejaVuSans-62" transform="translate(251.025391 0)"/>
      <use xlink:href="#DejaVuSans-6f" transform="translate(314.501953 0)"/>
      <use xlink:href="#DejaVuSans-64" transform="translate(375.683594 0)"/>
      <use xlink:href="#DejaVuSans-79" transform="translate(439.160156 0)"/>
      <use xlink:href="#DejaVuSans-20" transform="translate(498.339844 0)"/>
      <use xlink:href="#DejaVuSans-70" transform="translate(530.126953 0)"/>
      <use xlink:href="#DejaVuSans-6f" transform="translate(593.603516 0)"/>
      <use xlink:href="#DejaVuSans-73" transform="translate(654.785156 0)"/>
      <use xlink:href="#DejaVuSans-69" transform="translate(706.884766 0)"/>
      <use xlink:href="#DejaVuSans-74" transform="translate(734.667969 0)"/>
      <use xlink:href="#DejaVuSans-69" transform="translate(773.876953 0)"/>
      <use xlink:href="#DejaVuSans-6f" transform="translate(801.660156 0)"/>
      <use xlink:href="#DejaVuSans-6e" transform="translate(862.841797 0)"/>
     </g>
    </g>
    <g id="line2d_49">
     <path d="M 623.37476 282.985697 
L 633.37476 282.985697 
L 643.37476 282.985697 
" style="fill: none; stroke: #2ca02c; stroke-width: 1.5; stroke-linecap: square"/>
    </g>
    <g id="text_16">
     <!-- hand -->
     <g transform="translate(651.37476 286.485697) scale(0.1 -0.1)">
      <defs>
       <path id="DejaVuSans-68" d="M 3513 2113 
L 3513 0 
L 2938 0 
L 2938 2094 
Q 2938 2591 2744 2837 
Q 2550 3084 2163 3084 
Q 1697 3084 1428 2787 
Q 1159 2491 1159 1978 
L 1159 0 
L 581 0 
L 581 4863 
L 1159 4863 
L 1159 2956 
Q 1366 3272 1645 3428 
Q 1925 3584 2291 3584 
Q 2894 3584 3203 3211 
Q 3513 2838 3513 2113 
z
" transform="scale(0.015625)"/>
      </defs>
      <use xlink:href="#DejaVuSans-68"/>
      <use xlink:href="#DejaVuSans-61" transform="translate(63.378906 0)"/>
      <use xlink:href="#DejaVuSans-6e" transform="translate(124.658203 0)"/>
      <use xlink:href="#DejaVuSans-64" transform="translate(188.037109 0)"/>
     </g>
    </g>
    <g id="line2d_50">
     <path d="M 623.37476 297.663822 
L 633.37476 297.663822 
L 643.37476 297.663822 
" style="fill: none; stroke: #d62728; stroke-width: 1.5; stroke-linecap: square"/>
    </g>
    <g id="text_17">
     <!-- max finger -->
     <g transform="translate(651.37476 301.163822) scale(0.1 -0.1)">
      <defs>
       <path id="DejaVuSans-66" d="M 2375 4863 
L 2375 4384 
L 1825 4384 
Q 1516 4384 1395 4259 
Q 1275 4134 1275 3809 
L 1275 3500 
L 2222 3500 
L 2222 3053 
L 1275 3053 
L 1275 0 
L 697 0 
L 697 3053 
L 147 3053 
L 147 3500 
L 697 3500 
L 697 3744 
Q 697 4328 969 4595 
Q 1241 4863 1831 4863 
L 2375 4863 
z
" transform="scale(0.015625)"/>
       <path id="DejaVuSans-67" d="M 2906 1791 
Q 2906 2416 2648 2759 
Q 2391 3103 1925 3103 
Q 1463 3103 1205 2759 
Q 947 2416 947 1791 
Q 947 1169 1205 825 
Q 1463 481 1925 481 
Q 2391 481 2648 825 
Q 2906 1169 2906 1791 
z
M 3481 434 
Q 3481 -459 3084 -895 
Q 2688 -1331 1869 -1331 
Q 1566 -1331 1297 -1286 
Q 1028 -1241 775 -1147 
L 775 -588 
Q 1028 -725 1275 -790 
Q 1522 -856 1778 -856 
Q 2344 -856 2625 -561 
Q 2906 -266 2906 331 
L 2906 616 
Q 2728 306 2450 153 
Q 2172 0 1784 0 
Q 1141 0 747 490 
Q 353 981 353 1791 
Q 353 2603 747 3093 
Q 1141 3584 1784 3584 
Q 2172 3584 2450 3431 
Q 2728 3278 2906 2969 
L 2906 3500 
L 3481 3500 
L 3481 434 
z
" transform="scale(0.015625)"/>
      </defs>
      <use xlink:href="#DejaVuSans-6d"/>
      <use xlink:href="#DejaVuSans-61" transform="translate(97.412109 0)"/>
      <use xlink:href="#DejaVuSans-78" transform="translate(158.691406 0)"/>
      <use xlink:href="#DejaVuSans-20" transform="translate(217.871094 0)"/>
      <use xlink:href="#DejaVuSans-66" transform="translate(249.658203 0)"/>
      <use xlink:href="#DejaVuSans-69" transform="translate(284.863281 0)"/>
      <use xlink:href="#DejaVuSans-6e" transform="translate(312.646484 0)"/>
      <use xlink:href="#DejaVuSans-67" transform="translate(376.025391 0)"/>
      <use xlink:href="#DejaVuSans-65" transform="translate(439.501953 0)"/>
      <use xlink:href="#DejaVuSans-72" transform="translate(501.025391 0)"/>
     </g>
    </g>
   </g>
  </g>
 </g>
 <defs>
  <clipPath id="p4c32b9b770">
   <rect x="47.178365" y="18.118365" width="705.821395" height="294.125145"/>
  </clipPath>
 </defs>
</svg>
